<?xml version="1.0" encoding="utf-8"?>
<svg xmlns="http://www.w3.org/2000/svg" xmlns:xlink="http://www.w3.org/1999/xlink" style="margin: auto; background: rgb(255, 255, 255); display: block; shape-rendering: auto;" width="201px" height="201px" viewBox="0 0 100 100" preserveAspectRatio="xMidYMid">
<g transform="rotate(0 50 50)">
  <rect x="46.5" y="19.5" rx="3.5" ry="10.5" width="7" height="21" fill="#fe718d">
    <animate attributeName="opacity" values="1;0" keyTimes="0;1" dur="0.7246376811594202s" begin="-0.6441223832528179s" repeatCount="indefinite"></animate>
  </rect>
</g><g transform="rotate(40 50 50)">
  <rect x="46.5" y="19.5" rx="3.5" ry="10.5" width="7" height="21" fill="#fe718d">
    <animate attributeName="opacity" values="1;0" keyTimes="0;1" dur="0.7246376811594202s" begin="-0.5636070853462157s" repeatCount="indefinite"></animate>
  </rect>
</g><g transform="rotate(80 50 50)">
  <rect x="46.5" y="19.5" rx="3.5" ry="10.5" width="7" height="21" fill="#fe718d">
    <animate attributeName="opacity" values="1;0" keyTimes="0;1" dur="0.7246376811594202s" begin="-0.48309178743961345s" repeatCount="indefinite"></animate>
  </rect>
</g><g transform="rotate(120 50 50)">
  <rect x="46.5" y="19.5" rx="3.5" ry="10.5" width="7" height="21" fill="#fe718d">
    <animate attributeName="opacity" values="1;0" keyTimes="0;1" dur="0.7246376811594202s" begin="-0.40257648953301123s" repeatCount="indefinite"></animate>
  </rect>
</g><g transform="rotate(160 50 50)">
  <rect x="46.5" y="19.5" rx="3.5" ry="10.5" width="7" height="21" fill="#fe718d">
    <animate attributeName="opacity" values="1;0" keyTimes="0;1" dur="0.7246376811594202s" begin="-0.32206119162640895s" repeatCount="indefinite"></animate>
  </rect>
</g><g transform="rotate(200 50 50)">
  <rect x="46.5" y="19.5" rx="3.5" ry="10.5" width="7" height="21" fill="#fe718d">
    <animate attributeName="opacity" values="1;0" keyTimes="0;1" dur="0.7246376811594202s" begin="-0.24154589371980673s" repeatCount="indefinite"></animate>
  </rect>
</g><g transform="rotate(240 50 50)">
  <rect x="46.5" y="19.5" rx="3.5" ry="10.5" width="7" height="21" fill="#fe718d">
    <animate attributeName="opacity" values="1;0" keyTimes="0;1" dur="0.7246376811594202s" begin="-0.16103059581320447s" repeatCount="indefinite"></animate>
  </rect>
</g><g transform="rotate(280 50 50)">
  <rect x="46.5" y="19.5" rx="3.5" ry="10.5" width="7" height="21" fill="#fe718d">
    <animate attributeName="opacity" values="1;0" keyTimes="0;1" dur="0.7246376811594202s" begin="-0.08051529790660224s" repeatCount="indefinite"></animate>
  </rect>
</g><g transform="rotate(320 50 50)">
  <rect x="46.5" y="19.5" rx="3.5" ry="10.5" width="7" height="21" fill="#fe718d">
    <animate attributeName="opacity" values="1;0" keyTimes="0;1" dur="0.7246376811594202s" begin="0s" repeatCount="indefinite"></animate>
  </rect>
</g>
<!-- [ldio] generated by https://loading.io/ --></svg>